<svg xmlns="http://www.w3.org/2000/svg" width="48.814" height="48" viewBox="0 0 48.814 48"><defs><style>.a{fill:#fafafa;}</style></defs><g transform="translate(-16 -24)"><path class="a" d="M198.509,165.017A6.509,6.509,0,1,0,192,158.509,6.509,6.509,0,0,0,198.509,165.017Zm0-11.39a4.881,4.881,0,1,1-4.881,4.881A4.881,4.881,0,0,1,198.509,153.627Z" transform="translate(-158.102 -114.983)"/><path class="a" d="M46.763,27.774l-.739-.155q-.8-.168-1.606-.276A4.012,4.012,0,0,0,40.469,24h-.124a4.012,4.012,0,0,0-3.935,3.258,22.389,22.389,0,0,0-2.557.413q-.858.191-1.691.447l-.008,0a22.387,22.387,0,0,0-14.87,14.955l-.047.156A29.343,29.343,0,0,0,16,51.667v8.014a.814.814,0,0,0,1.03.784l.6-.164v7.911a3.789,3.789,0,0,0,5.593,3.332l6.331-3.43a22.292,22.292,0,0,1,21.585.2l5.305,3a3.8,3.8,0,0,0,4.9-1.024l.278-.37a3.809,3.809,0,0,0,.758-2.273V60.076l1.411.389a.814.814,0,0,0,1.03-.784V51.668a29.345,29.345,0,0,0-1.239-8.44A22.35,22.35,0,0,0,46.763,27.774Zm-6.418-2.146h.124A2.382,2.382,0,0,1,42.7,27.177c-.427-.025-.854-.038-1.28-.038H38.7q-.289,0-.577.008a2.382,2.382,0,0,1,2.217-1.519ZM32.85,29.609q.669-.2,1.356-.35a20.779,20.779,0,0,1,4.5-.494h2.713a20.766,20.766,0,0,1,4.267.444l.743.157c.575.121,1.141.269,1.7.436l1.918,2.277a33.462,33.462,0,0,1,7.686,25.028l-1.94-.535a57.863,57.863,0,0,0-30.765,0l-1.941.535A33.468,33.468,0,0,1,30.77,32.079Zm-15.223,29V51.667A27.717,27.717,0,0,1,18.8,43.7l.046-.153A20.759,20.759,0,0,1,29.7,30.826l-.173.205a35.1,35.1,0,0,0-8.059,26.255q.014.131.028.26Zm43.119,9.026a2.172,2.172,0,0,1-.432,1.3l-.278.37a2.166,2.166,0,0,1-2.793.584l-5.305-3a23.918,23.918,0,0,0-23.161-.209l-6.331,3.43a2.162,2.162,0,0,1-3.192-1.9v-.657a3.763,3.763,0,0,0,2.163.678,3.8,3.8,0,0,0,1.8-.457l6.332-3.43a22.289,22.289,0,0,1,21.585.2l5.305,3a3.8,3.8,0,0,0,4.3-.4Zm0-3.769a2.172,2.172,0,0,1-.432,1.3l-.278.37a2.166,2.166,0,0,1-2.793.584l-5.305-3a23.915,23.915,0,0,0-23.161-.209l-6.331,3.43a2.162,2.162,0,0,1-3.192-1.9V59.852l6.2-1.711a56.237,56.237,0,0,1,29.9,0l5.39,1.487Zm2.441-5.257L59.32,57.546l.012-.1A35.1,35.1,0,0,0,51.3,31.049,20.722,20.722,0,0,1,62.017,43.7a27.711,27.711,0,0,1,1.17,7.969Z"/></g></svg>