<svg xmlns="http://www.w3.org/2000/svg" width="48.002" height="48" viewBox="0 0 48.002 48"><defs><style>.a{fill:#fafafa;}</style></defs><path class="a" d="M8.811,49.827l1.841-4.247a2.43,2.43,0,0,1-.717-2.691l4.638-12.81a1.726,1.726,0,0,0,.009-1.147l-.732-2.119a3.149,3.149,0,0,1,1.377-3.731l14.686-8.628a3.138,3.138,0,0,1,3.357.116l5.649-5.905a4.364,4.364,0,0,1,2.233-1.243L53.508,4.766a.708.708,0,0,1,.842.544l.766,3.565a.709.709,0,0,1-.544.842L42.586,12.292a.527.527,0,0,0-.264.146l-5.428,5.671.088.088a3.155,3.155,0,0,1,.745,3.254L28.661,47.464A2.45,2.45,0,0,1,25.2,48.826l-5.759-3.034L19,46.815a2.447,2.447,0,0,1-2.663,1.438L14.57,52.323a.709.709,0,0,1-.651.427.7.7,0,0,1-.284-.059L9.177,50.759a.708.708,0,0,1-.369-.932ZM41.3,11.459a1.926,1.926,0,0,1,.988-.553l11.3-2.428L53.114,6.3,41.453,8.808a2.951,2.951,0,0,0-1.509.838l-5.63,5.883,1.577,1.575ZM17.115,46.806a1.025,1.025,0,0,0,.583-.555l.748-1.724a.708.708,0,0,1,.98-.345l6.436,3.39A1.034,1.034,0,0,0,27.32,47l9.069-26.014A1.729,1.729,0,0,0,35.98,19.2l-3.259-3.257a1.722,1.722,0,0,0-2.089-.267L15.946,24.305a1.727,1.727,0,0,0-.755,2.046l.732,2.119a3.145,3.145,0,0,1-.016,2.093L11.269,43.373a1.029,1.029,0,0,0,.533,1.288l.019.006.031.017,4.362,2.045a.026.026,0,0,1,.01,0l.017.009.07.033a1.024,1.024,0,0,0,.806.031Zm-3.565,4.3,1.464-3.375L11.9,46.271l-1.5,3.469Z" transform="translate(-8.75 -4.75)"/><path class="a" d="M76.541,39.661l-2.147,1.261a.709.709,0,0,1-.719-1.222l2.147-1.261a.709.709,0,0,1,.719,1.222Z" transform="translate(-56.665 -24.734)"/><path class="a" d="M71.021,64.895a3.286,3.286,0,0,1,1.517-1.786l1.556-.855a3.291,3.291,0,0,1,4.693,3.967l-4.76,13.657a.709.709,0,0,1-1,.394l-5.736-3.017a.709.709,0,0,1-.338-.864ZM72.96,78.634l4.489-12.881a1.874,1.874,0,0,0-1.769-2.49h-.01l-3.394,8.862.551,1.767a.708.708,0,0,1-.465.888.7.7,0,0,1-.211.032.708.708,0,0,1-.676-.5l-.625-2a.707.707,0,0,1,.015-.465l3.008-7.857-.652.358a1.875,1.875,0,0,0-.864,1.018L68.495,76.285Z" transform="translate(-56.149 -38.718)"/><path class="a" d="M10.828,37.534c.207.212,5.061,5.251,5.061,9.221a5.57,5.57,0,0,1-11.139,0c0-3.97,4.855-9.007,5.061-9.219a.729.729,0,0,1,1.017,0ZM10.32,50.905a4.156,4.156,0,0,0,4.152-4.15c0-2.711-2.944-6.312-4.152-7.676-1.208,1.361-4.152,4.959-4.152,7.676A4.156,4.156,0,0,0,10.32,50.905Z" transform="translate(32.113 -24.132)"/></svg>