<svg xmlns="http://www.w3.org/2000/svg" width="48.001" height="48" viewBox="0 0 48.001 48"><defs><style>.a{fill:#fafafa;}</style></defs><g transform="translate(-4.978 -4.979)"><path class="a" d="M34.417,28.417l1.68-1.68a.574.574,0,0,0,0-.811l-.5-.5L46.11,14.906l2.663-.945a.574.574,0,0,0,.3-.251L52.238,8.3a.574.574,0,0,0-.09-.7l-1.8-1.8a.574.574,0,0,0-.7-.09L44.249,8.883a.574.574,0,0,0-.251.3l-.945,2.663L32.536,22.366l-.5-.5a.574.574,0,0,0-.811,0l-1.68,1.68-3.284-3.284A11.061,11.061,0,0,0,12.524,5.55a.574.574,0,0,0-.224.95l4.034,4.034-.96,4.789L10.4,16.2,6.508,12.287a.575.575,0,0,0-.952.222,11.06,11.06,0,0,0,14.7,13.75l1.953,1.953L20.041,29.4a.572.572,0,0,0-.13.1L6.955,42.453a4.488,4.488,0,0,0,0,6.339L9.166,51a4.488,4.488,0,0,0,6.339,0L28.461,38.048a.572.572,0,0,0,.1-.13l1.188-2.17L45.736,51.736a4.243,4.243,0,0,0,6-6Zm-1.084,3.258a1.015,1.015,0,0,1-1.434,0l-5.615-5.615a1.014,1.014,0,1,1,1.434-1.434l5.614,5.615a1.016,1.016,0,0,1,0,1.434ZM43.956,12.569a.574.574,0,0,0,.135-.214l.918-2.587,4.845-2.833,1.171,1.171L48.191,12.95l-2.587.918A.574.574,0,0,0,45.39,14L34.782,24.611l-1.434-1.434ZM31.627,23.079l3.253,3.253-1.917,1.917L29.71,25ZM20.793,25.171a.574.574,0,0,0-.644-.116,9.953,9.953,0,0,1-11.12-2.011,9.851,9.851,0,0,1-2.647-9.255l3.412,3.435a.574.574,0,0,0,.507.161l5.658-1a.574.574,0,0,0,.463-.452l1.1-5.474a.574.574,0,0,0-.157-.518L13.8,6.38A9.914,9.914,0,0,1,25.054,20.15a.574.574,0,0,0,.116.644l2.5,2.5a2.157,2.157,0,0,0-2.551,1L24.1,23.27a.574.574,0,0,0-.811.811l1.581,1.581a2.154,2.154,0,0,0,.354.9l-1.959,1.072Zm6.8,12.124-12.9,12.9a3.339,3.339,0,0,1-4.717,0L7.766,47.981a3.339,3.339,0,0,1,0-4.717l12.9-12.9L26.03,27.43l4.5,4.5Zm23.332,13.63a3.1,3.1,0,0,1-4.377,0L30.322,34.7l1.072-1.959a2.157,2.157,0,0,0,.914.357.44.44,0,0,0,.029.036l12.6,12.6a.574.574,0,1,0,.811-.811L33.67,32.843a2.15,2.15,0,0,0,1-2.55L50.924,46.547a3.1,3.1,0,0,1,0,4.377Z" transform="translate(0 0)"/><path class="a" d="M188.152,98.1a.574.574,0,0,0,.571-.53A8.877,8.877,0,0,0,188.3,94.1a.574.574,0,1,0-1.089.36,7.73,7.73,0,0,1,.367,3.023.574.574,0,0,0,.528.616Z" transform="translate(-164.783 -80.246)"/><path class="a" d="M173.937,67.559a8.867,8.867,0,0,0-.543-.748.574.574,0,1,0-.892.722,7.726,7.726,0,0,1,.473.651.574.574,0,1,0,.963-.624Z" transform="translate(-151.39 -55.728)"/><path class="a" d="M97.059,342.425l-9.165,9.165a.574.574,0,1,0,.811.811l9.165-9.165a.574.574,0,0,0-.811-.811Z" transform="translate(-74.836 -305.03)"/><path class="a" d="M72.032,316.584a.574.574,0,0,0-.811,0l-9.165,9.165a.574.574,0,1,0,.811.811l9.165-9.165A.574.574,0,0,0,72.032,316.584Z" transform="translate(-51.468 -281.659)"/></g></svg>