<svg xmlns="http://www.w3.org/2000/svg" width="48" height="48" viewBox="0 0 48 48"><defs><style>.a{fill:#fafafa;}</style></defs><path class="a" d="M32.348,18.783a1.044,1.044,0,0,0,1.044-1.044V5.217A5.223,5.223,0,0,0,28.174,0H5.217A5.223,5.223,0,0,0,0,5.217V42.783A5.223,5.223,0,0,0,5.217,48H28.174a5.223,5.223,0,0,0,5.217-5.217V30.261a1.043,1.043,0,1,0-2.087,0V42.783a3.134,3.134,0,0,1-3.13,3.13H5.217a3.134,3.134,0,0,1-3.13-3.13V5.217a3.134,3.134,0,0,1,3.13-3.13H28.174a3.134,3.134,0,0,1,3.13,3.13V17.739A1.044,1.044,0,0,0,32.348,18.783Z"/><g transform="translate(12.522 22.957)"><path class="a" d="M162.435,234.667H129.044a1.043,1.043,0,1,0,0,2.087h33.391a1.043,1.043,0,1,0,0-2.087Z" transform="translate(-128 -234.667)"/></g><g transform="translate(39.652 16.699)"><path class="a" d="M413.37,177.27l-6.261-6.261a1.043,1.043,0,1,0-1.476,1.476l5.522,5.522-5.522,5.522a1.044,1.044,0,0,0,1.476,1.478l6.261-6.261A1.044,1.044,0,0,0,413.37,177.27Z" transform="translate(-405.328 -170.704)"/></g></svg>